HIERARCHY
ROOT Hips
{
 OFFSET 0.000000 0.000000 0.000000
 CHANNELS 6 Xposition Yposition Zposition Yrotation Xrotation Zrotation
 JOINT Chest
 {
  OFFSET 0.000000 12.953391 -0.028419
  CHANNELS 3 Yrotation Xrotation Zrotation
  JOINT Chest2
  {
   OFFSET 0.000000 10.280254 0.051622
   CHANNELS 3 Yrotation Xrotation Zrotation
   JOINT Chest3
   {
    OFFSET 0.000000 9.287180 0.000000
    CHANNELS 3 Yrotation Xrotation Zrotation
    JOINT Chest4
    {
     OFFSET 0.000000 9.287180 0.000000
     CHANNELS 3 Yrotation Xrotation Zrotation
     JOINT Neck
     {
      OFFSET 0.000000 13.296264 0.000000
      CHANNELS 3 Yrotation Xrotation Zrotation
      JOINT Head
      {
       OFFSET 0.000000 8.959264 0.099003
       CHANNELS 3 Yrotation Xrotation Zrotation
       End Site
       {
        OFFSET 0.000000 17.121337 0.039303
       }
      }
     }
     JOINT RightCollar
     {
      OFFSET -3.193511 7.451388 0.000000
      CHANNELS 3 Yrotation Xrotation Zrotation
      JOINT RightShoulder
      {
       OFFSET -15.792092 0.000000 0.000000
       CHANNELS 3 Yrotation Xrotation Zrotation
       JOINT RightElbow
       {
        OFFSET -31.151839 0.000000 0.000000
        CHANNELS 3 Yrotation Xrotation Zrotation
        JOINT RightWrist
        {
         OFFSET -25.536298 0.000000 0.002321
         CHANNELS 3 Yrotation Xrotation Zrotation
         End Site
         {
          OFFSET -19.133213 0.000000 0.000000
         }
        }
       }
      }
     }
     JOINT LeftCollar
     {
      OFFSET 3.193511 7.451388 0.000000
      CHANNELS 3 Yrotation Xrotation Zrotation
      JOINT LeftShoulder
      {
       OFFSET 15.792092 0.000000 0.000000
       CHANNELS 3 Yrotation Xrotation Zrotation
       JOINT LeftElbow
       {
        OFFSET 31.151839 0.000000 0.000000
        CHANNELS 3 Yrotation Xrotation Zrotation
        JOINT LeftWrist
        {
         OFFSET 25.536298 0.000000 0.002321
         CHANNELS 3 Yrotation Xrotation Zrotation
         End Site
         {
          OFFSET 19.133213 0.000000 0.000000
         }
        }
       }
      }
     }
    }
   }
  }
 }
 JOINT RightHip
 {
  OFFSET -10.745749 0.139252 0.014209
  CHANNELS 3 Yrotation Xrotation Zrotation
  JOINT RightKnee
  {
   OFFSET 0.000000 -43.743899 -0.006071
   CHANNELS 3 Yrotation Xrotation Zrotation
   JOINT RightAnkle
   {
    OFFSET 0.000000 -43.214199 0.089931
    CHANNELS 3 Yrotation Xrotation Zrotation
    JOINT RightToe
    {
     OFFSET 0.000000 -9.699830 19.151588
     CHANNELS 3 Yrotation Xrotation Zrotation
     End Site
     {
      OFFSET 0.000000 -1.292898 4.893873
     }
    }
   }
  }
 }
 JOINT LeftHip
 {
  OFFSET 10.745749 0.139252 0.014209
  CHANNELS 3 Yrotation Xrotation Zrotation
  JOINT LeftKnee
  {
   OFFSET 0.000000 -43.743899 -0.006071
   CHANNELS 3 Yrotation Xrotation Zrotation
   JOINT LeftAnkle
   {
    OFFSET 0.000000 -43.214199 0.089931
    CHANNELS 3 Yrotation Xrotation Zrotation
    JOINT LeftToe
    {
     OFFSET 0.000000 -9.699830 19.151588
     CHANNELS 3 Yrotation Xrotation Zrotation
     End Site
     {
      OFFSET 0.000000 -1.292898 4.893873
     }
    }
   }
  }
 }
}
MOTION
Frames: 15
Frame Time: 0.016667
-2.208323 94.334664 -241.491379 89.814263 2.766259 5.013446 -2.064352 8.076480 0.701114 -0.927496 3.586198 0.346820 -0.927561 3.586074 0.346830 -0.697519 2.688960 0.265498 -0.571355 18.462833 3.653173 -2.243744 -1.784711 6.896556 4.294235 -28.067059 -19.386567 37.390605 -34.236908 2.029821 65.440527 -17.453210 -12.909422 14.420840 -16.185190 -10.716851 -18.311134 -39.352788 22.282640 -55.488471 -20.692310 2.634827 -59.813066 -15.100156 7.021708 -10.083656 -20.103214 23.199918 -5.270615 -33.778350 11.633283 -1.087084 54.803348 1.030900 -0.877694 -3.311043 3.829276 0.018819 -3.580851 -4.275559 18.746563 2.570972 1.370573 3.732302 29.479081 2.985805 6.931604 -14.287136 -13.040946 0.151045 -15.500581 -0.332793
0.984466 95.056370 -242.319735 87.979302 2.876838 5.097742 -1.889310 7.905980 0.646524 -0.848673 3.511124 0.318897 -0.848673 3.511124 0.318897 -0.638140 2.632907 0.243979 -0.559424 18.571845 3.602907 -2.199263 -1.585865 6.795722 4.029574 -27.650675 -19.313084 37.504660 -34.433759 2.094926 65.572735 -17.560424 -12.969449 14.315690 -16.165772 -10.852899 -18.536812 -39.512943 22.439723 -55.129005 -20.520623 1.931688 -59.774226 -15.426203 6.894279 -10.027906 -20.178653 23.211941 -4.425334 -33.298885 11.623954 -2.235024 48.168729 1.431119 -0.184630 -3.271648 5.152324 0.000000 0.000000 0.000000 18.522355 4.625809 1.644235 4.027648 28.843532 2.487254 6.310935 -8.809638 -14.286593 0.063082 -23.703906 -0.300596
4.266111 95.657452 -243.090096 86.459933 2.829650 5.320753 -1.841461 7.779964 0.542076 -0.825561 3.455688 0.271306 -0.825547 3.455737 0.271311 -0.620501 2.591471 0.208095 -0.485693 18.711606 3.601991 -2.055819 -1.331328 6.764167 3.930057 -27.014083 -19.176446 37.600961 -34.598226 1.841402 65.780819 -17.733784 -13.235816 14.208749 -16.032227 -10.915783 -18.489882 -39.627964 22.508679 -55.033282 -20.276041 1.369978 -59.687743 -15.543703 7.009051 -10.013919 -20.028439 23.142847 -5.541669 -31.552989 12.521305 -2.009660 41.008976 1.727843 -0.302444 -2.824542 6.404830 -0.147049 0.963829 0.997205 18.104018 6.208159 2.076737 5.204414 29.034856 2.179168 3.915987 -2.630106 -15.226984 -0.110913 -31.080780 -0.021679
7.623473 96.143221 -243.802315 85.175483 2.667923 5.666135 -1.866371 7.684787 0.394117 -0.834140 3.413901 0.205759 -0.834156 3.413918 0.205773 -0.626594 2.560173 0.158956 -0.391479 18.858358 3.622300 -1.881635 -1.063889 6.765227 3.868677 -26.149421 -18.995031 37.761138 -34.852688 1.285359 65.989937 -17.960970 -13.637719 14.099385 -15.842417 -10.950601 -18.306653 -39.722773 22.490918 -55.126052 -19.950985 0.957130 -59.552568 -15.559668 7.252836 -10.012308 -19.761032 23.025173 -7.581271 -28.938262 13.694307 -1.034522 33.709540 2.034179 -0.928529 -1.908552 7.222076 -0.108497 0.488719 0.487418 17.567859 7.357824 2.608174 6.664625 30.018071 1.935809 0.343984 3.987822 -16.160464 -0.375174 -37.583239 0.633015
10.984146 96.364911 -244.468852 84.160084 2.387641 6.086439 -1.942136 7.650693 0.223761 -0.864886 3.399354 0.131306 -0.864886 3.399354 0.131306 -0.649205 2.549336 0.103266 -0.345868 18.948578 3.632697 -1.796935 -0.898500 6.766750 3.674412 -24.920162 -18.752998 38.159082 -35.481588 0.206759 66.065549 -18.164190 -14.062343 13.991846 -15.688748 -10.987546 -18.266066 -39.802445 22.301821 -55.310710 -19.449134 0.938519 -59.329007 -15.682488 7.514352 -9.981864 -19.563674 22.932825 -9.202752 -26.491242 14.590740 -0.510037 28.257831 2.299358 -1.880339 -0.326398 6.174940 -0.000000 -0.000000 -0.000000 17.080918 8.009646 3.082193 7.321340 31.887430 1.760831 -3.462632 9.664464 -17.064637 -0.558127 -39.563584 1.933093
14.336714 96.249305 -245.095948 83.513658 1.914121 6.610523 -2.123511 7.731195 0.005408 -0.941577 3.436070 0.037785 -0.941527 3.436100 0.037751 -0.706112 2.577047 0.033584 -0.355062 18.927563 3.638071 -1.816991 -0.936438 6.780816 3.155839 -22.890517 -18.383422 39.111122 -36.891458 -1.870904 65.898852 -18.313232 -14.520301 13.861767 -15.591144 -11.036853 -18.566002 -39.836674 21.718315 -55.566850 -18.484202 1.726275 -58.925427 -16.081388 7.743505 -9.868774 -19.516040 22.889521 -9.869822 -24.706820 15.112571 -1.489309 25.641685 2.311301 -3.358767 2.892478 1.834437 0.000000 -0.000000 0.000000 16.821878 8.116217 3.482286 6.339381 34.838888 1.545571 -7.586020 14.243630 -17.783940 -0.075349 -33.873901 3.929748
17.692594 95.869621 -245.677361 83.130972 1.318228 7.209782 -2.357739 7.871555 -0.241170 -1.041165 3.499693 -0.066913 -1.041122 3.499720 -0.066949 -0.780187 2.624933 -0.044250 -0.410207 18.848660 3.636377 -1.921602 -1.079644 6.798291 2.530103 -20.493199 -18.000488 40.399585 -38.652188 -4.550313 65.593624 -18.435702 -14.994506 13.731635 -15.528599 -11.085273 -19.003267 -39.874334 20.956979 -55.904356 -17.309024 2.881551 -58.428572 -16.584523 7.991140 -9.727765 -19.535347 22.876688 -10.237399 -23.129491 15.534260 -2.999139 24.826299 2.030932 -5.578091 6.278651 -4.539005 0.000000 -0.000000 0.000000 16.611368 7.713800 3.864067 4.401429 38.618561 1.188118 -11.846781 17.867504 -18.352422 1.268657 -23.542811 5.343290
21.013629 95.296745 -246.206825 82.742933 0.813440 7.749717 -2.460903 7.944981 -0.421951 -1.083784 3.533296 -0.144840 -1.083784 3.533296 -0.144840 -0.811742 2.650239 -0.102323 -0.557764 18.807982 3.584231 -2.177105 -1.148863 6.751364 2.196947 -18.904511 -17.785738 41.286461 -39.823391 -6.639340 65.340379 -18.534674 -15.336365 13.673249 -15.534218 -11.127838 -19.255310 -40.022785 20.595114 -56.295481 -16.664686 3.410187 -58.071034 -16.893692 8.302275 -9.680813 -19.564682 22.908328 -10.854709 -21.409320 16.025653 -3.234546 24.811054 1.559523 -7.514063 6.813276 -9.796400 0.000000 0.000000 0.000000 16.083695 6.858868 4.178001 2.763361 42.637518 0.778411 -14.732067 19.711664 -18.727215 2.260100 -14.341396 5.373930
24.319559 94.431880 -246.700227 82.285632 0.490077 8.226875 -2.334780 7.863507 -0.510647 -1.026537 3.497395 -0.186686 -1.026556 3.497379 -0.186649 -0.768616 2.623346 -0.134039 -0.866102 18.864229 3.438746 -2.692040 -1.032956 6.581221 2.398539 -18.747574 -17.783994 41.254985 -39.895204 -7.559362 65.146614 -18.648687 -15.460629 13.698591 -15.673823 -11.198074 -19.332338 -40.449715 21.121164 -56.689097 -16.945980 2.628896 -57.955148 -16.923877 8.773426 -9.796906 -19.621135 23.033019 -12.256055 -19.202987 16.761759 -0.833700 25.450425 0.671687 -8.088980 2.944246 -12.340449 0.000000 -0.000000 0.000000 14.887812 5.547693 4.372310 2.071771 47.011081 0.462076 -15.581577 18.976898 -18.942052 2.000477 -8.161619 3.890089
27.590646 93.373823 -247.141679 81.827434 0.257084 8.642713 -2.076165 7.721554 -0.528287 -0.911816 3.434123 -0.199570 -0.911830 3.434111 -0.199535 -0.682548 2.575876 -0.144455 -1.267845 18.956219 3.238165 -3.358478 -0.847804 6.338200 2.877219 -19.400065 -17.890197 40.740233 -39.390216 -7.829345 65.011791 -18.733603 -15.459700 13.792707 -15.884205 -11.267028 -19.241058 -40.968168 22.059029 -57.126564 -17.810297 1.265120 -57.978832 -16.761084 9.303251 -10.006817 -19.687274 23.203574 -13.862136 -16.840629 17.489285 2.688795 26.974362 -0.576121 -8.008326 -3.194904 -13.614120 0.000000 0.000000 0.000000 13.388972 3.778753 4.547703 1.676959 51.657263 0.112705 -14.832055 16.616731 -18.805642 0.947034 -3.266286 1.663743
30.729517 92.489860 -247.477250 81.302704 0.057556 8.872807 -1.794750 7.666817 -0.448848 -0.788395 3.409185 -0.169314 -0.788395 3.409185 -0.169314 -0.590177 2.557112 -0.122546 -1.606218 19.000513 3.062918 -3.919657 -0.753941 6.123185 3.249266 -20.178457 -18.006328 40.286895 -38.964604 -7.769949 65.123198 -18.674914 -15.460048 13.992375 -16.009012 -11.237054 -18.628490 -41.139262 22.523865 -57.762022 -18.898123 0.474228 -58.073213 -16.370859 9.640696 -10.225937 -19.657934 23.286791 -14.576162 -14.999814 17.793333 4.974950 28.913421 -1.495477 -8.012045 -8.573329 -14.448466 0.000000 0.000000 0.000000 12.280654 1.629372 4.871257 1.099689 55.718366 -0.326215 -12.634984 14.481160 -17.976499 0.000000 0.000000 0.000000
33.684992 91.893695 -247.673568 80.645549 -0.114048 8.795684 -1.493693 7.774361 -0.211285 -0.658708 3.455901 -0.068619 -0.658705 3.455913 -0.068637 -0.493495 2.592033 -0.047747 -1.827549 18.942213 2.937845 -4.288346 -0.855262 5.967737 3.308770 -20.841520 -18.065098 40.127948 -38.982650 -7.463628 65.737405 -18.348125 -15.538620 14.405178 -15.977751 -10.999006 -16.898394 -40.644532 21.996737 -58.967656 -20.381228 0.852898 -58.327001 -15.607173 9.691569 -10.481871 -19.418254 23.196776 -13.536789 -14.227942 17.513262 4.890108 31.376165 -1.569959 -8.404776 -12.222247 -14.799727 -0.009370 0.417653 0.200753 11.753984 -0.982620 5.532574 0.269775 59.066059 -0.898846 -8.376289 13.277276 -16.258162 0.211651 1.390441 0.324978
36.508252 91.471625 -247.764006 79.924193 -0.258848 8.532772 -1.170727 7.968075 0.121820 -0.521101 3.541007 0.074149 -0.521102 3.541014 0.074139 -0.391140 2.655719 0.058599 -1.984141 18.837625 2.842725 -4.550733 -1.044792 5.849000 3.261941 -21.635400 -18.128868 39.996813 -39.080374 -6.798719 66.600666 -17.888042 -15.607537 14.927169 -15.871382 -10.656469 -14.686264 -39.762310 21.032223 -60.444817 -22.032083 1.856292 -58.653940 -14.623691 9.542725 -10.747458 -19.085116 23.016201 -11.641612 -13.982698 16.925310 3.745780 34.204239 -1.188603 -8.837916 -15.131665 -14.535289 -0.013489 0.836669 0.398812 11.551291 -3.960128 6.338529 -0.590049 61.835107 -1.401451 -2.758896 12.156188 -13.899384 0.777714 1.143276 1.287885
39.255468 91.249816 -247.794750 79.273264 -0.423713 8.325319 -0.929771 8.167547 0.390444 -0.419038 3.629236 0.189479 -0.419038 3.629236 0.189479 -0.315300 2.721799 0.144553 -2.078879 18.771354 2.792809 -4.712124 -1.164440 5.791338 3.328067 -22.611500 -18.280203 39.669628 -38.832894 -5.783189 67.135983 -17.563123 -15.564751 15.282243 -15.745759 -10.433361 -13.403867 -39.001552 20.284613 -61.305619 -22.906030 2.848477 -58.727521 -13.837598 9.228619 -10.856149 -18.901079 22.865776 -10.474628 -13.328982 16.340576 2.885574 36.437008 -1.001906 -8.825591 -17.236613 -14.074468 0.000000 -0.000000 0.000000 11.727969 -6.964542 6.822713 -1.373444 63.561208 -1.390603 2.041906 10.662860 -11.075367 0.000000 0.000000 0.000000
41.914235 91.259270 -247.778207 78.772039 -0.652428 8.267677 -0.850215 8.367932 0.516297 -0.386149 3.718176 0.244199 -0.386131 3.718182 0.244197 -0.290969 2.788480 0.185434 -2.078394 18.772547 2.823406 -4.720975 -1.160199 5.847157 3.594167 -23.986848 -18.610465 39.037900 -37.923472 -4.179683 67.056600 -17.479339 -15.370209 15.338305 -15.593781 -10.457908 -13.937185 -38.573256 19.975772 -60.845464 -22.335270 3.696865 -58.350719 -13.407136 8.701352 -10.676709 -18.993810 22.759996 -11.017922 -11.819382 15.872269 2.860197 37.697353 -1.384971 -7.930224 -18.449463 -13.562441 0.067175 -3.105838 -1.590946 12.565793 -10.017959 6.711467 -2.133845 64.126506 -0.519021 5.154118 8.524668 -7.301441 -3.188184 -2.782557 -6.859317
